<svg xmlns="http://www.w3.org/2000/svg" fill="#ffffff" width="55px" height="55px" viewBox="0 0 48 48"><path fill-rule="evenodd" d="M24,8c-.16,0-.33,.04-.48,.12l-10.78,5.88h-2.75c-.8,0-1.56,.32-2.12,.88-.56,.56-.88,1.33-.88,2.12s.32,1.56,.88,2.12c.32,.32,.7,.56,1.12,.71v2.17c-.55,0-1,.45-1,1v14c0,.55,.45,1,1,1,2.81,0,4.22-1.1,5.62-2.22,.24-.19,.38-.48,.38-.78v-12c0-.55-.45-1-1-1v-2h3v2c-.55,0-1,.45-1,1v20c0,.55,.45,1,1,1,2.81,0,4.22-1.1,5.62-2.22,.24-.19,.38-.48,.38-.78V23c0-.55-.45-1-1-1v-2h4v2c-.55,0-1,.45-1,1v17c0,.55,.45,1,1,1,2.81,0,4.22-1.1,5.62-2.22,.24-.19,.38-.48,.38-.78v-15c0-.55-.45-1-1-1v-2h3v2c-.55,0-1,.45-1,1v10c0,.55,.45,1,1,1,2.81,0,4.22-1.1,5.62-2.22,.24-.19,.38-.48,.38-.78v-8c0-.55-.45-1-1-1v-2.17c.42-.15,.8-.39,1.12-.71,.56-.56,.88-1.33,.88-2.12s-.32-1.56-.88-2.12c-.56-.56-1.33-.88-2.12-.88h-2.75l-9.07-4.95c.5-.54,.81-1.26,.81-2.05,0-1.66-1.34-3-3-3-.55,0-1,.45-1,1s.45,1,1,1,1,.45,1,1-.45,1-1,1h0Zm-6,16h3v16.52c-.8,.63-1.66,1.22-3,1.41V24h0Zm12,0v13.52c-.8,.63-1.66,1.29-3,1.48v-15h3Zm-17,0v10.52c-.8,.63-1.66,1.22-3,1.41v-11.93h3Zm22,0h3v6.52c-.8,.63-1.66,1.22-3,1.41v-7.93h0Zm1-2h1v-2h-1v2h0Zm-7,0v-2h-1v2h1Zm-9,0v-2h-1v2h1Zm-9,0h1v-2h-1v2h0Zm27-6H10c-.27,0-.52,.11-.71,.29-.19,.19-.29,.44-.29,.71s.11,.52,.29,.71c.19,.19,.44,.29,.71,.29h28c.27,0,.52-.11,.71-.29,.19-.19,.29-.44,.29-.71s-.11-.52-.29-.71c-.19-.19-.44-.29-.71-.29h0Zm-21.08-2h14.16l-7.08-3.86-7.08,3.86h0Z"/></svg>