<svg xmlns="http://www.w3.org/2000/svg" width="56" height="56" viewBox="0 0 56 56"><title>Fan</title><g fill="none" fill-rule="evenodd"><path fill="white" fill-rule="nonzero" d="M24.5 39a9.5 9.5 0 1 1 0-19 9.5 9.5 0 0 1 0 19zm0-3a6.5 6.5 0 1 0 0-13 6.5 6.5 0 0 0 0 13z"></path><path fill="white" fill-rule="nonzero" d="M29.807 22.403a1.5 1.5 0 0 1-2.9-.768c.39-1.476.593-3.036.593-4.635 0-8.371-4.067-14-10.5-14-4.993 0-9 3.001-9 7 0 2.912.943 4.104 4.007 5.88l1.248.714c.516.299.934.549 1.34.808.465.296.895.59 1.305.898 2.359 1.77 3.702 3.627 4.094 5.594a1.5 1.5 0 1 1-2.943.586c-.232-1.165-1.14-2.421-2.951-3.78-.345-.259-.712-.51-1.116-.767a32.643 32.643 0 0 0-1.23-.74c-.184-.107-1.024-.586-1.25-.718C6.607 16.22 5 14.185 5 10 5 4.125 10.507 0 17 0c8.339 0 13.5 7.143 13.5 17 0 1.857-.236 3.676-.693 5.403zM16.79 30.972zm-.784.155c-.283.057-.517.106-.737.155-1.076.24-1.884.502-2.711.905C7.2 34.8 3.928 39.581 3.999 44.48c.027 1.844.256 3.15.848 4.364 1.44 2.952 3.745 4.25 7.01 4.158a6.824 6.824 0 0 0 2.738-.668c2.68-1.307 3.384-2.615 3.7-5.872.024-.254.144-1.643.186-2.063a24.73 24.73 0 0 1 .317-2.272l.013-.083c.598-3.111 1.268-4.586 2.78-5.736a1.5 1.5 0 1 1 1.817 2.387c-.787.599-1.18 1.462-1.637 3.833l-.014.082a23.004 23.004 0 0 0-.291 2.088c-.04.393-.159 1.777-.185 2.054-.408 4.2-1.616 6.447-5.37 8.278a9.82 9.82 0 0 1-3.969.97c-4.407.125-7.818-1.795-9.791-5.841-.818-1.677-1.12-3.39-1.152-5.636C.911 38.4 4.89 32.59 11.243 29.491c1.062-.518 2.085-.85 3.373-1.137.244-.055.497-.108.8-.168.186-.038.989-.196.793-.157a1.5 1.5 0 0 1 .592 2.94l-.795.158zM27.39 37.507a1.5 1.5 0 1 1 2.223-2.014c.981 1.084 1.83 1.791 3.229 2.7 7.02 4.56 13.956 4.214 17.46-1.181 1.13-1.74 1.724-3.68 1.7-5.491-.032-2.29-1.033-4.211-2.941-5.45-2.502-1.625-3.984-1.554-6.939-.147-.23.11-1.483.723-1.864.903-.794.375-1.48.67-2.199.933-2.7.99-3.815 1.24-5.558 1.24a1.5 1.5 0 0 1 0-3c1.335 0 2.128-.178 4.546-1.064a22.986 22.986 0 0 0 1.93-.822c.357-.169 1.604-.779 1.856-.899 3.809-1.813 6.358-1.936 9.861.34 2.772 1.8 4.262 4.66 4.307 7.925.033 2.423-.739 4.941-2.183 7.166-4.542 6.993-13.343 7.431-21.61 2.063-1.61-1.045-2.656-1.918-3.819-3.202z"></path><path d="M0 0h56v56H0z"></path></g></svg>