<svg xmlns="http://www.w3.org/2000/svg" width="56" height="56" viewBox="0 0 56 56"><title>Rain on tent</title><g fill="none" fill-rule="evenodd"><path fill="white" fill-rule="nonzero" d="M46.779 53H9.22L28 23.267 46.779 53zM26.226 20.458L5.232 53.7A1.5 1.5 0 0 0 6.5 56h43a1.5 1.5 0 0 0 1.268-2.301l-20.994-33.24 1.994-3.158a1.5 1.5 0 0 0-2.536-1.602L28 17.649l-1.232-1.95a1.5 1.5 0 0 0-2.536 1.602l1.994 3.157z"></path><path fill="white" fill-rule="nonzero" d="M21.226 53h13.548L28 42.303 21.226 53zm8.041-14.303l9.5 15A1.5 1.5 0 0 1 37.5 56h-19a1.5 1.5 0 0 1-1.267-2.303l9.5-15a1.5 1.5 0 0 1 2.534 0zm21.985-4.03a1.5 1.5 0 1 1 2.496 1.665l-2 3a1.5 1.5 0 1 1-2.496-1.664l2-3zm-10-14a1.5 1.5 0 1 1 2.496 1.665l-2 3a1.5 1.5 0 1 1-2.496-1.664l2-3zm9-16a1.5 1.5 0 1 1 2.496 1.665l-2 3a1.5 1.5 0 1 1-2.496-1.664l2-3zm-23-3a1.5 1.5 0 1 1 2.496 1.665l-2 3a1.5 1.5 0 1 1-2.496-1.664l2-3zm-13 13a1.5 1.5 0 1 1 2.496 1.665l-2 3a1.5 1.5 0 1 1-2.496-1.664l2-3zm-10-10a1.5 1.5 0 1 1 2.496 1.665l-2 3a1.5 1.5 0 0 1-2.496-1.664l2-3zm1 30a1.5 1.5 0 0 1 2.496 1.665l-2 3a1.5 1.5 0 0 1-2.496-1.664l2-3z"></path><path d="M0 0h56v56H0z"></path></g></svg>