<svg xmlns:xlink="http://www.w3.org/1999/xlink" xmlns="http://www.w3.org/2000/svg" width="56" height="56" viewBox="0 0 56 56"><title>Train</title><g fill="none" fill-rule="evenodd"><path fill="#FFFFFF" fill-rule="nonzero" d="M15 1.5a1.5 1.5 0 0 1 3 0v53a1.5 1.5 0 0 1-3 0v-53zM37 47v3H19v-3h18zm5 0h2.5a1.5 1.5 0 0 1 0 3H42v-3zm-5-10v3H19v-3h18zm5 0h2.5a1.5 1.5 0 0 1 0 3H42v-3zm-5-10v3H19v-3h18zm5 0h2.5a1.5 1.5 0 0 1 0 3H42v-3zm-5-10v3H19v-3h18zm5 0h2.5a1.5 1.5 0 0 1 0 3H42v-3zM37 7v3H19V7h18zm5 0h2.5a1.5 1.5 0 0 1 0 3H42V7zM14 47v3h-2.5a1.5 1.5 0 0 1 0-3H14zm0-10v3h-2.5a1.5 1.5 0 0 1 0-3H14zm0-10v3h-2.5a1.5 1.5 0 0 1 0-3H14zm0-10v3h-2.5a1.5 1.5 0 0 1 0-3H14zm0-10v3h-2.5a1.5 1.5 0 0 1 0-3H14zm24-5.5a1.5 1.5 0 0 1 3 0v53a1.5 1.5 0 0 1-3 0v-53z"></path><path d="M0 0h56v56H0z" fill="none"></path></g></svg>